<svg enable-background="new 0 0 30 30" height="30" viewBox="0 0 30 30" width="30" xmlns="http://www.w3.org/2000/svg"><g fill="#d8d8d8"><path d="m13.5 14.3v2.9.4c.1.5.9.8 1.8.7.7-.1 1-.4 1-1 0-2 0-3.9 0-5.9 0-.5.2-.5.5-.4 1.3.3 2.6.8 3.7 1.4 2.3 1.1 4.7 2.1 7 3.2.4.2.7.4 1 .7.5.4.5 1.1.1 1.6 0 0-.1.1-.1.1-.5.5-1.2.9-1.8 1.1-2.6 1.2-5.2 2.4-7.7 3.5-2.5 1.2-5.4 1.2-7.9 0-2.5-1.1-5.1-2.3-7.6-3.5-.5-.2-1.1-.5-1.5-.8-1-.7-1-1.6 0-2.3.8-.5 1.6-.9 2.5-1.3l6.6-3c.7-.3 1.4-.6 2.2-.7.3-.1.4 0 .4.3-.2 1-.2 2-.2 3zm-7.1 1.6c-.5 0-1 .1-1.5.4-.4.2-.6.7-.4 1.1.1.2.2.4.4.4 1 .6 2.2.5 3.1 0 .4-.2.5-.7.3-1.1-.1-.1-.2-.2-.3-.3-.4-.4-1-.5-1.6-.5z"/><path d="m15.1 27.9c-1.6-.1-3.2-.5-4.7-1.2-2.5-1.2-5.1-2.3-7.7-3.5-.2-.1-.3-.2-.5-.2-1-.5-1.5-1.6-1.1-2.6.1-.3.3-.4.6-.3 1 .5 2 .9 3 1.4 2.3 1 4.6 2.2 7 3.1s5 .8 7.3-.3c2.6-1.1 5.1-2.3 7.7-3.5l1.6-.7c.4-.2.6 0 .6.4.1 1.4-.1 2-1.4 2.6-2 1-4 1.9-6 2.8-1.2.6-2.5 1.2-3.8 1.6-.8.3-1.7.4-2.6.4z"/><path d="m18.9 5.9c0 2.1-1.7 3.9-3.8 3.9s-3.9-1.7-3.9-3.8 1.7-3.9 3.8-3.9c2.1 0 3.9 1.7 3.9 3.8z"/></g><path d="m0 0h30v30h-30z" fill="none"/></svg>