<svg xmlns="http://www.w3.org/2000/svg" width="48" height="48" viewBox="0 0 48 48">
  <g id="Bank" transform="translate(-492 -508)">
    <g id="card" transform="translate(492 508)">
      <path id="Vector" d="M39.556,8.761a2.458,2.458,0,0,1-2.374,2.533H2.374A2.458,2.458,0,0,1,0,8.761V8.74A9.038,9.038,0,0,1,2.4,2.556,7.925,7.925,0,0,1,8.188,0H31.348a8.505,8.505,0,0,1,8.209,8.761Z" transform="translate(4.222 7.178)" fill="#292d32"/>
      <path id="Vector-2" data-name="Vector" d="M0,2.534V13.11a9.038,9.038,0,0,0,2.4,6.183A7.925,7.925,0,0,0,8.189,21.85H31.348a8.505,8.505,0,0,0,8.21-8.761V2.534A2.458,2.458,0,0,0,37.183,0H2.374A2.458,2.458,0,0,0,0,2.534Zm11.866,12.25H7.911a1.588,1.588,0,0,1,0-3.166h3.955a1.588,1.588,0,0,1,0,3.166Zm12.85,0H16.811a1.588,1.588,0,0,1,0-3.166h7.911a1.588,1.588,0,0,1,0,3.166Z" transform="translate(4.222 18.972)" fill="#292d32"/>
      <path id="Vector-3" data-name="Vector" d="M0,0H48V48H0Z" fill="none" opacity="0"/>
    </g>
  </g>
</svg>
