<svg enable-background="new 0 0 30 30" height="30" viewBox="0 0 30 30" width="30" xmlns="http://www.w3.org/2000/svg"><g fill="#fe1f03"><path d="m27.4 8.5c-1.7-3.2-4.5-5.7-8-6.8-1-.3-2-.5-3.1-.6l-.9-.1h-.2-.5c-.1 0-.2 0-.3 0-3.7.1-7.2 1.7-9.7 4.5-1.7 1.8-2.9 3.9-3.4 6.3-.2 1.1-.3 2.1-.3 3.2-.1 3.9 1.6 7.7 4.5 10.3 1.8 1.7 4 2.9 6.5 3.4.8.2 1.5.2 2.3.3h.4.5.3c5.7-.2 10.7-3.8 12.6-9.2.4-1.1.7-2.2.8-3.3.4-2.7-.2-5.5-1.5-8zm-12.2 18c-6.3.2-11.6-4.9-11.7-11.3s4.9-11.6 11.3-11.7c6.3-.1 11.6 4.9 11.8 11.3.1 6.3-5 11.6-11.4 11.7z"/><path d="m4.6 18.6.9-.3 1.7-.6c.1 0 .2 0 .3.1s.2.5.3.8 0 .2-.1.3l-2.3 1.2c-.1 0-.2.1-.2 0-.2-.5-.4-1-.6-1.5z"/><path d="m5.5 15h1.3c.1 0 .2 0 .2.2s0 .6.1.9c0 .1 0 .2-.1.2l-2.4.4c-.3 0-.3 0-.4-.3s-.2-.8-.2-1.2c0-.2.1-.2.2-.2z"/><path d="m24.5 15h1.3c.1 0 .2 0 .2.2 0 .4 0 .8-.1 1.3 0 .3-.1.3-.3.2l-1.8-.3-.6-.1c-.2 0-.2-.1-.2-.3 0-.3.1-.6.1-.8s.1-.2.3-.2z"/><path d="m6.3 8.3 1.5 1.2.7.5c.1.1.2.2.1.3-.2.3-.4.6-.6.9l-2.7-1.5c.3-.5.6-.9 1-1.4z"/><path d="m22.4 7-1.9 2c-.1.1-.2.1-.3 0l-.7-.5c-.1 0-.1-.1-.1-.2.5-.7 1-1.5 1.5-2.2.1-.2.2-.2.3-.1z"/><path d="m8.9 5.8 1 1.5.5.8c.1.2.1.3-.1.4s-.3.3-.5.5-.3.1-.4 0l-1.4-1.6-.3-.3c-.1-.1-.2-.2 0-.2.3-.4.8-.7 1.2-1.1z"/><path d="m17 7.2c.1-.3.2-.7.2-1 .1-.6.3-1.1.4-1.6 0-.2.1-.2.3-.2l1.2.4c.2.1.2.1.1.3-.4.8-.7 1.5-1 2.3-.1.2-.1.2-.4.2s-.5-.2-.7-.3c0 0 0-.1-.1-.1z"/><path d="m10.5 25h-.2l-1.1-.6c-.2-.2-.2-.2 0-.4.4-.7.9-1.4 1.4-2.1.1-.1.2-.2.3-.1s.5.3.7.4.2.1.1.3c-.4.8-.7 1.6-1 2.4-.1 0-.1.1-.2.1z"/><path d="m13 7.2s-.1.1-.1.1c-.3.1-.6.2-.9.3s-.2-.1-.2-.2c-.3-.7-.6-1.3-.9-2l-.2-.4c0-.1 0-.2.1-.2l1.4-.5c.1 0 .1 0 .1.1.2.6.3 1.3.5 1.9 0 .3.1.6.2.9z"/><path d="m15.7 23.3c0-.3 0-.3.3-.4l.7-.1c.1 0 .2 0 .3.2.2.8.4 1.7.6 2.5 0 .1 0 .2-.2.2l-1.3.3c-.2 0-.2-.1-.2-.2s-.1-.5-.1-.7c0-.7 0-1.2-.1-1.8z"/><path d="m22.6 17.6.2.1 2.3.8c.3.1.3.1.2.4l-.5 1.1c-.1.1-.1.1-.3.1l-2.3-1.2c-.1-.1-.2-.1-.1-.3s.2-.5.4-.8c0-.1.1-.1.1-.2z"/><path d="m22 11.1c-.1 0-.1-.1-.2-.1-.2-.3-.3-.5-.5-.8-.1-.1 0-.1.1-.2l1.8-1.4c.4-.3.4-.3.7.1l.5.8c.1.2.1.2-.1.4l-2.2 1.2z"/><path d="m23.1 13.6c-.2 0-.3 0-.3-.2s-.1-.5-.2-.8c0-.1 0-.2.1-.2h.1l2.5-.8c.1 0 .2 0 .2.1.1.4.2.9.4 1.3 0 .2-.1.2-.2.2l-1.5.3z"/><path d="m21 24.2-1.4.8c-.1 0-.2 0-.2-.1-.4-.8-.7-1.6-1.1-2.5 0-.1 0-.2.1-.2l.8-.4c.1-.1.1-.1.2 0z"/><path d="m20.4 20.9c.3-.3.5-.6.8-.9l.4.3 1.8 1.4c.2.1.2.2 0 .4l-.8.9c-.1.1-.2.2-.3 0z"/><path d="m7.5 23.1-1.1-1.1c-.1-.1-.1-.2 0-.2l2.1-1.6c.1-.2.2-.2.3-.2l.6.6c.1.1.1.2 0 .3z"/><path d="m6.8 13.6-1.5-.3-1-.2c-.1 0-.2-.1-.2-.2.1-.4.2-.9.3-1.3 0-.2.1-.2.3-.2l2.4.9c.1 0 .2.1.1.2-.1.3-.1.5-.2.8s.1.3-.2.3z"/><path d="m15 4.1h.6c.1 0 .2 0 .2.2 0 .5-.1 1.1-.1 1.6 0 .3-.1.6-.1 1 0 .1-.1.2-.2.2h-.9c-.1 0-.2 0-.2-.1-.1-.8-.1-1.7-.2-2.5 0-.3 0-.3.3-.3z"/><path d="m14.2 23.5c-.1.7-.1 1.5-.2 2.2 0 .1-.1.2-.2.1-.5-.1-.9-.1-1.4-.2-.2 0-.1-.2-.1-.3.1-.5.3-1.1.4-1.6l.2-.8c0-.1.1-.2.2-.2l.8.1c.2 0 .3.1.2.3.1.2.1.3.1.4z"/><path d="m7 19.7c.3 0 .5.2.5.5 0 .3-.2.5-.5.5s-.5-.2-.5-.5.2-.4.5-.5z"/><path d="m14.8 7.6c-4.1.1-7.3 3.5-7.2 7.6s3.5 7.3 7.6 7.2c4-.1 7.2-3.4 7.2-7.4 0-4.1-3.3-7.4-7.4-7.4-.1 0-.1 0-.2 0zm.2 12.4c-2.7 0-5-2.3-5-5 .1-2.7 2.3-4.9 5-5 2.8 0 5 2.2 5 5s-2.2 5-5 5z"/><path d="m18.5 15.8c-.1-.3-.5-.5-.8-.4 0 0 0 0-.1 0-.2.1-.4.1-.6 0l-.2-.1c-.3-.1-.4-.2-.3-.5 0-.3-.2-.7-.4-.9-.1-.1-.1-.1-.2-.2s-.1-.2-.1-.3c0-.4.3-.7.6-.9.3-.1.4-.4.3-.7s-.3-.5-.6-.5c-.5 0-.8.3-.6.8.1.3.1.7 0 1 0 .2-.3.4-.5.4-.4 0-.8.2-1.1.5-.1.1-.2.2-.4.1s-.3-.2-.5-.3c-.1-.1-.2-.2-.3-.3s-.2-.2-.3-.3c-.3-.2-.6-.1-.9.1-.2.2-.2.6 0 .8s.5.3.8.2c.2-.1.4-.1.6 0l.2.1c.4.1.4.1.4.6v.1c.1.4.2.7.5.9.2.1.2.4.1.6-.1.3-.3.5-.5.6-.3.2-.4.5-.3.9.2.3.5.4.8.3s.5-.5.3-.9c-.1-.1-.1-.3-.1-.4 0-.2.1-.3.2-.5 0-.2.2-.3.4-.3.4.1.8-.1 1-.4.2-.2.5-.3.7-.2.3.1.5.3.6.5.2.3.5.4.8.3.5-.1.6-.4.5-.7zm-3.4-1.3h-.1c-.2 0-.4.2-.4.5 0 .1-.1.2-.3.2-.1 0-.2-.1-.2-.3.1-.4.4-.7.8-.8h.3c.1.1 0 .3-.1.4z"/></g><path d="m0 0h30v30h-30z" fill="none"/></svg>