<?xml version="1.0" encoding="utf-8"?>
<!-- Generator: Adobe Illustrator 25.0.1, SVG Export Plug-In . SVG Version: 6.00 Build 0)  -->
<svg version="1.1" id="bold" xmlns="http://www.w3.org/2000/svg" xmlns:xlink="http://www.w3.org/1999/xlink" x="0px" y="0px"
	 viewBox="0 0 512 512" style="enable-background:new 0 0 512 512;" xml:space="preserve">
<style type="text/css">
	.st0{fill:#FFFFFF;}
</style>
<path class="st0" d="M421.3,512H368c-14.7,0-26.7-12-26.7-26.7v-96h-48c-6.5,0-12.3-3.9-14.8-9.9s-1.1-12.9,3.5-17.4l101.3-101.3
	c6.3-6.3,16.4-6.3,22.6,0L507.3,362c4.6,4.6,6,11.5,3.5,17.4s-8.3,9.9-14.8,9.9h-48v96C448,500,436,512,421.3,512L421.3,512z"/>
<path class="st0" d="M448,64H64C28.8,64,0,92.8,0,128v256c0,35.2,28.8,64,64,64h234.7v-16h-5.3c-20.3,0-38.4-10.2-48.9-26.7H64
	c-11.7,0-21.3-9.6-21.3-21.3V128c0-11.7,9.6-21.3,21.3-21.3h384c11.7,0,21.3,9.6,21.3,21.3v135.9l42.7,42.7V128
	C512,92.8,483.2,64,448,64z"/>
<path class="st0" d="M154.7,170.7h-128c-8.8,0-16,7.2-16,16v138.7c0,8.8,7.2,16,16,16h128c32.4,0,58.7-26.3,58.7-58.7v-53.3
	C213.3,197,187,170.7,154.7,170.7z M128,298.7c-23.6,0-42.7-19.1-42.7-42.7s19.1-42.7,42.7-42.7s42.7,19.1,42.7,42.7
	S151.6,298.7,128,298.7z"/>
</svg>
