<?xml version="1.0" encoding="utf-8"?>
<!-- Generator: Adobe Illustrator 21.0.0, SVG Export Plug-In . SVG Version: 6.00 Build 0)  -->
<svg version="1.1" id="Layer_1" xmlns="http://www.w3.org/2000/svg" xmlns:xlink="http://www.w3.org/1999/xlink" x="0px" y="0px"
	 viewBox="0 0 18 18" style="enable-background:new 0 0 18 18;" xml:space="preserve">
<style type="text/css">
	.st0{fill:none;}
	.st1{fill:#FCFCFC;}
</style>
<path class="st0" d="M0,0h18v18H0V0z"/>
<path class="st1" d="M1.9,17.4c-0.3-0.1-0.6-0.2-0.8-0.6C1,16.7,1,16.5,1,16.3c0-1.4,0-2.8,0-4.2c0,0,0,0,0-0.1h2.1v3.2h11.8V12h2.1
	v4.1c0,0.8-0.2,1-0.9,1.3L1.9,17.4z"/>
<path class="st1" d="M7.4,7.7V7.5c0-2.2,0-4.4,0-6.6c0-0.5,0.2-0.7,0.7-0.7c0.7,0,1.3,0,2,0c0.4,0,0.6,0.2,0.6,0.6
	c0,2.2,0,4.5,0,6.7c0,0.1,0,0.1,0,0.2h0.2c0.6,0,1.2,0,1.9,0c0.3,0,0.5,0.1,0.6,0.3c0.1,0.2,0,0.4-0.1,0.6c-1.2,1.4-2.5,2.8-3.7,4.2
	c-0.3,0.3-0.6,0.3-0.9,0c-1.2-1.4-2.5-2.8-3.7-4.2C4.7,8.5,4.7,8.3,4.8,8c0.1-0.2,0.3-0.3,0.6-0.3C6,7.7,6.7,7.7,7.4,7.7z"/>
</svg>
