<svg xmlns="http://www.w3.org/2000/svg" width="48" height="48" viewBox="0 0 48 48">
  <g id="Emoney" transform="translate(-684 -316)">
    <g id="wallet-2" transform="translate(684 316)">
      <path id="Vector" d="M0,0H48V48H0Z" transform="translate(48 48) rotate(180)" fill="none" opacity="0"/>
      <path id="Vector-2" data-name="Vector" d="M8.549,1.7V5.133a1.711,1.711,0,0,1-1.667,1.7H3.615a3.554,3.554,0,0,1-3.6-3.117A3.347,3.347,0,0,1,1.015,1a3.322,3.322,0,0,1,2.4-1H6.882A1.711,1.711,0,0,1,8.549,1.7Z" transform="translate(36.118 20.583)" fill="#292d32"/>
      <path id="Vector-3" data-name="Vector" d="M38.572,25.754H35.586A7.6,7.6,0,0,1,30.135,12.78a7.106,7.106,0,0,1,5.2-2.2h3.237a1.014,1.014,0,0,0,.768-.329,1.064,1.064,0,0,0,.276-.8A9.731,9.731,0,0,0,30.8.107,9.336,9.336,0,0,0,29.237,0h-18.8A10.865,10.865,0,0,0,8.75.129C3.424.812,0,4.873,0,10.686V25.647A10.57,10.57,0,0,0,10.441,36.333h18.8c5.848,0,9.878-3.741,10.379-9.447a1.064,1.064,0,0,0-.276-.8,1.014,1.014,0,0,0-.768-.329Zm-15.6-12.4H10.441a1.6,1.6,0,0,1,0-3.206h12.53a1.6,1.6,0,0,1,0,3.206Z" transform="translate(3.333 5.833)" fill="#292d32"/>
    </g>
  </g>
</svg>
