<?xml version="1.0" encoding="utf-8"?>
<!-- Generator: Adobe Illustrator 16.0.0, SVG Export Plug-In . SVG Version: 6.00 Build 0)  -->
<!DOCTYPE svg PUBLIC "-//W3C//DTD SVG 1.1//EN" "http://www.w3.org/Graphics/SVG/1.1/DTD/svg11.dtd">
<svg version="1.1" id="Layer_1" xmlns="http://www.w3.org/2000/svg" xmlns:xlink="http://www.w3.org/1999/xlink" x="0px" y="0px"
	 width="42px" height="42px" viewBox="0 0 42 42" enable-background="new 0 0 42 42" xml:space="preserve">
<path fill="#FFFFFF" d="M23.498,36.882c0-4.159,0-8.288,0-12.437c-1.663,0-3.296,0-4.972,0c0,4.143,0,8.281,0,12.44
	c-3.756,0-7.47,0-11.226,0c0-4.753,0-9.515,0-14.35c-0.541,0.565-1.026,1.075-1.478,1.548c-0.664-0.663-1.247-1.247-1.791-1.789
	c5.625-5.639,11.304-11.33,16.944-16.982c5.662,5.674,11.341,11.365,16.992,17.03c-0.484,0.481-1.07,1.063-1.66,1.648
	c-0.443-0.456-0.938-0.966-1.433-1.474c-0.036,0.021-0.072,0.043-0.108,0.063c0,4.758,0,9.516,0,14.3
	C30.999,36.882,27.277,36.882,23.498,36.882z M32.245,34.395c0-0.168,0-0.31,0-0.449c0-4.512-0.003-9.022,0.006-13.534
	c0.001-0.295-0.082-0.504-0.293-0.714c-3.556-3.542-7.101-7.093-10.65-10.641c-0.09-0.09-0.187-0.174-0.294-0.274
	c-0.091,0.081-0.17,0.145-0.241,0.216c-3.595,3.595-7.191,7.188-10.777,10.792c-0.126,0.126-0.209,0.355-0.21,0.539
	c-0.011,4.55-0.009,9.101-0.009,13.649c0,0.139,0,0.275,0,0.402c2.112,0,4.17,0,6.258,0c0-4.16,0-8.291,0-12.423
	c3.335,0,6.641,0,9.977,0c0,4.157,0,8.287,0,12.437C28.09,34.395,30.139,34.395,32.245,34.395z"/>
<rect x="-0.001" y="0.1" fill="none" width="42.001" height="42"/>
</svg>
