<svg enable-background="new 0 0 30 30" height="30" viewBox="0 0 30 30" width="30" xmlns="http://www.w3.org/2000/svg"><g fill="#d8d8d8"><path d="m16.7 17.5c-.1 0-.1.1-.2.2s-.1.3-.1.4c-.3 1.1-.5 2.3-.8 3.4 0 .2-.1.4-.1.6 0 .1.1.2.2.2s.3-.1.3-.2c.1-.2.1-.3.1-.5.2-1 .4-1.9.6-2.9.1-.3.1-.6.2-1s0-.3-.2-.2z"/><path d="m26.5 14c-.5.4-.4.4-.7.5-.5.2-1 .2-1.5.1-.7 0-1.4-.4-1.8-1-.2-.3-.3-.7-.3-1-.1-.5.1-1 .5-1.4.3-.4.6-.7 1-.9.5-.4 1-.9 1.3-1.5.3-.8.2-1.6-.1-2.4-.3-1-1.1-1.9-2.1-2.3 0 0 1.4 1.8 1.3 2.9-.1 1.2-1.1 2.1-2.3 2.1-.9 0-1.9-.4-2.6-1-.6-.7-1-1.6-1.1-2.6-.1-.8 0-1.5.4-2.2.7-.8 1.6-1.3 2.6-1.4-1.2-.2-2.4-.1-3.4.5-1.4.8-2 2.5-1.5 4 .2.8 1.3 3 1.3 4 0 .8-.4 3.3-2.1 3.6-.5.2-1.1.1-1.6-.1-1.6-.9-1.5-3.5-1.3-4.4.5-1.5.5-3.1-.1-4.5-.3-.8-.8-1.5-1.4-2-1-.8-1.9-1.4-2.9-2 1 1 1.7 2.3 2.3 3.6.3 1.5-.2 3.1-1.3 4.2-.8.8-1.3 1.1-1.8 1.8-.7.8-1.4 1.7-1.9 2.6v-.1c-.1-.2-.3-.6-.4-.6-1.2-1.3-3.2-.6-3.5-.6.3 0 2.1.2 2.5 1.5.3 1 .5 2 .5 3.1-.1.5-.1.9-.1 1.4 0 6.1 4.9 11.1 11.1 11.1 4.6 0 8.7-2.8 10.4-7.1.6-1.4.9-2.9 1-4.4 0-.8.1-1.7.3-2.5.2-.6.7-1.2 1.3-1.4-.6-.3-1.5-.2-2 .4zm-13.7 9.2-2 .1c.2-1 .4-1.9.6-2.9h-.6c-.1.3-.1.6-.2.8l-.4 2s0 .1-.1.1h-1.9c.1-.3.1-.5.2-.7.4-1.6.7-3.3 1.1-5l.2-1.1s0-.1.1-.1h1.9c-.2.8-.4 1.6-.5 2.4h.6l.5-2.4h2c0 .2-.1.4-.1.6l-1.2 5.4c-.1.2-.2.5-.2.8zm6.2-5.3c-.2.9-.3 1.7-.5 2.5-.1.4-.2.8-.3 1.2-.2.8-.8 1.4-1.6 1.5-.3.1-.7.2-1 .2-.4 0-.8-.1-1.1-.2-.6-.2-.9-.8-.8-1.4.1-.8.3-1.5.5-2.3.1-.5.2-1 .4-1.6.2-.7.7-1.3 1.5-1.5.6-.2 1.3-.2 2 0 .6.2 1 .9.9 1.6zm4.7-.1h-1.2c-.4 1.8-.8 3.6-1.2 5.4h-2c.4-1.8.8-3.6 1.2-5.5h-1.1l.3-1.4h4.3z"/><path d="m6.2 9.4c-.3-.3-.6-.6-.8-1-.1-.4-.1-.9.2-1.3.6-.9 1.2-1.3 1.3-1.8.1-.6-.1-1.3-.5-1.9.6.6 1.1 1.3 1.6 2 .4.7.3 1.6-.2 2.1-.3.3-1.2.5-1.4 1-.2.3-.2.6-.2.9z"/></g><path d="m0 0h30v30h-30z" fill="none"/></svg>