<?xml version="1.0" encoding="utf-8"?>
<svg viewBox="0 0 31.7 31.4" xmlns="http://www.w3.org/2000/svg" xmlns:bx="https://boxy-svg.com">
  <g id="surface1">
    <path style=" stroke:none;fill-rule:nonzero;fill:#FFFFFF;fill-opacity:1;" d="M 10.641 23.86 L 7.672 23.86 C 7.316 23.86 7.098 23.66 6.996 23.543 C 6.832 23.336 6.769 23.071 6.82 22.817 C 7.691 18.672 11.387 15.637 15.656 15.539 L 16.098 15.539 C 17.137 15.559 18.156 15.758 19.129 16.117 C 19.562 16.274 20.051 16.063 20.207 15.629 C 20.363 15.199 20.148 14.715 19.711 14.555 C 19.566 14.508 19.434 14.457 19.289 14.41 C 20.676 13.379 21.582 11.735 21.582 9.891 C 21.582 6.774 19.012 4.242 15.875 4.242 C 12.734 4.242 10.172 6.785 10.172 9.891 C 10.172 11.746 11.07 13.379 12.473 14.422 C 11.195 14.836 9.992 15.481 8.953 16.332 C 7.027 17.891 5.695 20.078 5.199 22.473 C 5.043 23.227 5.23 23.992 5.719 24.59 C 6.203 25.18 6.926 25.52 7.687 25.52 L 10.656 25.52 C 11.125 25.52 11.5 25.149 11.5 24.688 C 11.496 24.231 11.109 23.86 10.641 23.86 Z M 11.84 9.891 C 11.84 7.696 13.652 5.899 15.871 5.899 C 18.09 5.899 19.902 7.696 19.902 9.891 C 19.902 12.031 18.199 13.774 16.07 13.871 C 16 13.871 15.937 13.871 15.871 13.871 C 15.805 13.871 15.742 13.871 15.672 13.871 C 13.543 13.774 11.84 12.031 11.84 9.891 Z M 11.84 9.891"/>
    <path style=" stroke:none;fill-rule:nonzero;fill:#FFFFFF;fill-opacity:1;" d="M 20.453 24.692 C 20.453 25.153 20.828 25.524 21.293 25.524 L 24.262 25.524 C 25.027 25.524 25.75 25.184 26.234 24.594 C 26.723 23.992 26.91 23.231 26.754 22.477 C 26.254 20.086 24.922 17.895 22.996 16.336 C 21.957 15.481 20.762 14.836 19.48 14.426 C 20.875 13.387 21.781 11.75 21.781 9.899 C 21.781 6.785 19.211 4.25 16.074 4.25 C 12.934 4.25 10.371 6.781 10.371 9.899 C 10.371 11.738 11.269 13.387 12.66 14.414 C 12.519 14.461 12.383 14.516 12.242 14.563 C 11.809 14.715 11.59 15.199 11.746 15.633 C 11.902 16.063 12.391 16.281 12.824 16.125 C 13.797 15.762 14.816 15.567 15.855 15.543 L 16.293 15.543 C 20.562 15.645 24.258 18.672 25.133 22.824 C 25.18 23.078 25.121 23.34 24.953 23.547 C 24.855 23.668 24.633 23.863 24.277 23.863 L 21.309 23.863 C 20.84 23.86 20.453 24.231 20.453 24.692 Z M 16.269 13.871 C 16.199 13.871 16.137 13.871 16.07 13.871 C 16 13.871 15.937 13.871 15.871 13.871 C 13.742 13.774 12.039 12.031 12.039 9.891 C 12.039 7.696 13.851 5.899 16.07 5.899 C 18.285 5.899 20.101 7.696 20.101 9.891 C 20.101 12.031 18.402 13.774 16.269 13.871 Z M 16.269 13.871"/>
    <path style=" stroke:none;fill-rule:nonzero;fill:#FFFFFF;fill-opacity:1;" d="M 15.871 0 C 7.125 0 0 7.039 0 15.711 C 0 24.371 7.113 31.422 15.871 31.422 C 24.617 31.422 31.742 24.383 31.742 15.711 C 31.742 7.039 24.617 0 15.871 0 Z M 15.851 29.867 C 7.918 29.867 1.488 23.508 1.488 15.649 C 1.488 7.793 7.918 1.426 15.851 1.426 C 23.781 1.426 30.215 7.789 30.215 15.649 C 30.215 23.508 23.789 29.867 15.851 29.867 Z M 15.851 29.867" bx:origin="0.754 0.469"/>
  </g>
</svg>