<svg enable-background="new 0 0 18 18" height="18" viewBox="0 0 18 18" width="18" xmlns="http://www.w3.org/2000/svg"><path d="m.2 9c0-1.7 0-3.3 0-5 0-.4.1-.7.2-1.1s.4-.9.8-1.2c.4-.4.8-.5 1.3-.5h8.1c.7 0 1.3.3 1.7.8.5.5.7 1.2.7 1.9v2.7c0 .3-.1.5-.3.7s-.6.2-.8 0-.3-.4-.3-.7c0-.8 0-1.7 0-2.5 0-.3-.1-.6-.2-.8-.2-.3-.5-.5-.8-.5h-7.9c-.2 0-.5 0-.7.2s-.3.5-.4.9v.4 9.5c0 .3.1.6.2.9.2.3.5.4.8.4h.8 6.8.4c.2 0 .5-.2.6-.4.2-.3.3-.6.3-.9 0-.9 0-1.8 0-2.6 0-.4.3-.7.7-.7.2 0 .4.2.5.4s.1.3.1.5v2.7c0 .7-.3 1.4-.8 2-.4.5-1 .8-1.6.8h-4.7c-1 0-2 0-3 0-.9 0-1.7-.5-2.1-1.3-.2-.3-.3-.7-.4-1.1 0-.2 0-.4 0-.6 0-1.7 0-3.3 0-4.9z" fill="#fcfcfc"/><path d="m10.6 9.9c-1.5 0-3 0-4.5 0-.5 0-.9-.4-.9-.9 0-.1 0-.1 0-.2 0-.3.2-.6.5-.7h.3 9.2.1c0-.1 0-.1-.1-.2l-1.2-1.5c-.3-.3-.4-.8-.1-1.2.2-.2.6-.3.9-.2.1 0 .1.1.2.1.3.3.6.7.8 1l1.6 2c.2.2.3.4.3.6v.4c-.1.3-.3.5-.5.7l-1.6 2-.6.9c-.2.3-.6.3-.9.1-.1-.1-.2-.2-.2-.3-.2-.4-.1-.8.2-1.1l1.2-1.4s.1-.1.1-.1c-.1 0-.1 0-.2 0z" fill="#fcfcfc"/><path d="m0 0h18v18h-18z" fill="none"/></svg>