<svg enable-background="new 0 0 18 18" height="18" viewBox="0 0 18 18" width="18" xmlns="http://www.w3.org/2000/svg"><path d="m17.8 4.1c0-.1 0-.2 0-.2 0-.2-.1-.4-.3-.5s-.4-.2-.6-.2h-16c-.3 0-.5.2-.6.5 0 .1-.1.3-.1.5v6.8 3c0 .2 0 .3.1.5.1.3.4.5.8.4h15.9c.3 0 .6-.2.7-.4s.1-.3.1-.5zm-1.4 1.6c0 .1-.1.1-.1.2l-3.5 3.5s-.1.1-.1.1l.1.1 2.7 2.7c.1.1.1.1.1.2.1.1.1.3 0 .4s-.3.1-.4 0c-.1 0-.1-.1-.2-.1l-2.7-2.7s-.1-.1-.1-.1c-.1 0-.1.1-.2.1l-2.5 2.5c-.1.2-.4.3-.6.2-.1 0-.2-.1-.3-.2l-2.6-2.4c0-.1-.1-.1-.1-.2 0 .1-.1.1-.1.1l-2.7 2.7c-.1.1-.1.2-.2.2-.1.1-.3.1-.5 0-.1-.1-.1-.3 0-.4 0-.1.1-.1.2-.2l2.7-2.8s.1-.1.1-.1l-.1-.1-3.6-3.5c-.1-.1-.2-.3-.2-.5 0-.3.3-.5.6-.5.1 0 .2 0 .2.1.1 0 .1.1.2.2l6.3 6.3.2.1.2-.2 6.4-6.3c.1-.2.4-.2.6-.2.3.1.5.3.4.6-.1.1-.2.2-.2.2z" fill="#fcfcfc"/><path d="m0 0h18v18h-18z" fill="none"/></svg>