<svg enable-background="new 0 0 30 30" height="30" viewBox="0 0 30 30" width="30" xmlns="http://www.w3.org/2000/svg"><path d="m29 13.8c-.1-.8-.2-1.6-.4-2.3-.3-1.1-.7-2.2-1.3-3.2-.5-1-1.2-1.9-2-2.8-.5-.5-1-1-1.7-1.5-1.5-1.2-3.3-2-5.1-2.5-1-.3-2-.4-3-.4-.9 0-1.8 0-2.6.1-1.4.2-2.7.6-4 1.2s-2.4 1.4-3.4 2.3c-.8.7-1.5 1.6-2.2 2.5-.8 1.2-1.4 2.6-1.9 4-.1.8-.3 1.5-.4 2.3v.6.2.1.1.2.2.2.3.1.1s0 .1 0 .1v.1.1c0 .4 0 .8.1 1.2.3 1.7.8 3.3 1.6 4.8.8 1.4 1.8 2.6 2.9 3.6.9.8 2 1.5 3.1 2.1 1 .5 2.1.9 3.3 1.1l1.5.3h.6.1.2.2.3.2.3.2.2.1.1c.3 0 .6 0 1-.1 1.7-.2 3.3-.8 4.8-1.6 2-1.1 3.7-2.6 5-4.5.6-.9 1.1-1.9 1.5-3 .5-1.2.7-2.5.8-3.8 0-.7 0-1.4-.1-2.2zm-15.5 7.7h-4.2c-.3 0-.7-.2-.7-.5 0-.1 0-.1 0-.2v-4.2c0-.3.2-.6.5-.7h.1 4.3c.3 0 .6.2.7.5v.2 4.3c0 .3-.2.6-.5.7-.1-.1-.1-.1-.2-.1zm.7-7.5c0 .3-.2.6-.5.7-.1 0-.1 0-.2 0h-4.2c-.3 0-.6-.2-.7-.5v-.1-4.4c-.1-.3.2-.7.5-.7h.2 4.3c.3 0 .6.2.7.5v.1 4.4zm6.9 6.8c0 .3-.2.6-.6.7h-.1-4.3c-.3 0-.6-.2-.7-.5v-.1-4.3c0-.3.2-.6.5-.7h.1 4.3c.3 0 .6.2.7.5v.1 4.3zm.1-8.3-2.6 2.5c-.1.1-.3.2-.4.2-.2 0-.3-.1-.4-.2l-2.6-2.6c-.2-.2-.2-.6 0-.8l2.6-2.6c.2-.2.6-.2.8 0 .9.8 1.7 1.7 2.5 2.5.3.3.4.6.1 1 0-.1 0 0 0 0z" fill="#d8d8d8"/><path d="m0 0h30v30h-30z" fill="none"/></svg>