<?xml version="1.0" encoding="utf-8"?>
<!-- Generator: Adobe Illustrator 25.0.1, SVG Export Plug-In . SVG Version: 6.00 Build 0)  -->
<svg version="1.1" id="Layer_1" xmlns="http://www.w3.org/2000/svg" xmlns:xlink="http://www.w3.org/1999/xlink" x="0px" y="0px"
	 viewBox="0 0 512 512" style="enable-background:new 0 0 512 512;" xml:space="preserve">
<style type="text/css">
	.st0{fill:#FFFFFF;}
</style>
<path class="st0" d="M255.9,384.3c8.3,0,15-6.7,15-15v-62.1c0-8.3-6.7-15-15-15c-8.3,0-15,6.7-15,15v62.1
	C240.9,377.6,247.6,384.3,255.9,384.3z"/>
<path class="st0" d="M427.8,164.5h-71V91.5C356.8,41,311.6,0,255.9,0C200.3,0,155,41,155,91.5v73.1H84c-8.3,0-15,6.7-15,15v191.8
	C69,448.9,132.1,512,209.6,512h92.6c77.5,0,140.6-63.1,140.6-140.6V179.5C442.8,171.2,436.1,164.5,427.8,164.5z M185,91.5
	c0-33.9,31.8-61.5,70.9-61.5s70.9,27.6,70.9,61.5v73.1H185V91.5z M412.8,371.4c0,61-49.6,110.6-110.6,110.6h-92.6
	C148.6,482,99,432.4,99,371.4V194.5h313.8V371.4z"/>
</svg>
