<svg enable-background="new 0 0 30 30" height="30" viewBox="0 0 30 30" width="30" xmlns="http://www.w3.org/2000/svg"><g fill="#d8d8d8"><path d="m28 19.7c0-.1 0-.2-.2-.2-.5.1-.9.1-1.4.2-.2 0-.2-.1-.3-.2-.1-.4-.2-.9-.3-1.3-.1-.3-.2-.5-.4-.8-.1-.2 0-.3.1-.4l1.2-.7c.1-.1.1-.1.1-.3-1.1-2-3-3.4-5.2-4-.3-.1-.3-.1-.3.2-.1.4-.2.9-.3 1.3 0 .2-.1.2-.3.2-.7-.1-1.4-.1-2.1 0-.2.1-.3 0-.3-.2l-.2-1.5v-.1l.5-.1c.5 0 1-.1 1.5-.1.2 0 .2-.1.2-.3v-8.8c0-.2 0-.3 0-.5-.2-.6-.7-1-1.3-1.1h-.2-12.6-.3c-.6.2-1.1.7-1.2 1.4v.5c0 .2-.1.3-.3.3-.4 0-.8 0-1.2.1-.7 0-1.2.6-1.2 1.3v.9 18.5c0 .4.1.9.4 1.2s.7.5 1.1.5h4.1 5.1c.3 0 .6.1.8.4 0 0 0 .1.1.1l.1-.1 1.1-1c.2-.2.2-.2.3 0 .4.5.9.9 1.5 1.2.5.3.5.3.2.8s-.3.7-.5 1c-.1.1 0 .2.1.3.6.3 1.2.5 1.9.6.3 0 .7.1 1 .1h.2.5.5c.8 0 1.5-.2 2.2-.5.5-.2.5-.2.3-.7s-.3-.8-.5-1.1c0-.1-.1-.2.1-.2.7-.3 1.3-.8 1.9-1.4l.1-.1.4.3.9.8c.1.1.1.1.2 0 1-1.2 1.7-2.7 2-4.3-.1-.8-.1-1.5-.1-2.2zm-14-2.3c-.3.6-.5 1.3-.6 2 0 .3-.1.4-.4.3s-.8-.1-1.2-.1c-.1 0-.2 0-.2.2-.1 1.2 0 2.5.4 3.7.1.3.2.6.3.9h-8.1c-.3 0-.6-.2-.7-.5 0-.1 0-.1 0-.2v-18.3c0-.3.2-.6.5-.7h.1 11.4c.3 0 .6.2.6.6v.1 7c0 .2-.1.3-.2.4-1.4.7-2.5 1.8-3.3 3.1-.1.1-.1.2.1.3.4.2.8.5 1.1.7s.3.2.2.5zm8.3 7.5c-.7.4-1.4.6-2.2.7-2.5.1-4.8-1.6-5.2-4.1-.4-2.1.4-4.2 2.2-5.4.8-.5 1.8-.8 2.8-.8 2.3 0 4.3 1.6 4.8 3.8.1.3.1.7.2 1-.1 2-1.1 3.8-2.6 4.8z"/><path d="m9.8 13.1c.2-.2.3-.4.5-.5.4-.5 1.2-.5 1.7 0 .2.2.3.4.3.6.1.4 0 .8-.3 1.1-.7.8-1.5 1.6-2.2 2.3h-.1-.1c-.7-.7-1.4-1.5-2.1-2.2-.5-.5-.5-1.3 0-1.8.2-.2.4-.3.6-.3.4-.1.8 0 1.1.3.2.1.4.3.6.5z"/><path d="m19.7 17.4.7.6 1.6 1.6c.5.5.4 1.3-.1 1.7-.1.1-.3.2-.5.3-.4.1-.8 0-1.1-.3l-.3-.2h-.1v.5c.1.4.4.8.8 1 .1 0 .1.1.2.1v.1c-.1 0-.2 0-.3 0-.6-.1-1.2-.1-1.8 0-.1 0-.1 0-.2 0l.2-.2c.5-.3.7-.8.7-1.3 0 0 0-.1 0-.2-.1.1-.2.1-.2.2-.2.2-.4.4-.7.5-.6.2-1.3-.2-1.5-.8-.1-.4 0-.9.3-1.2l1.8-1.8c.2-.2.3-.4.5-.6z"/><path d="m7.3 9.3c-.3-1-.6-1.9-.9-2.9 0-.1-.2-.2-.3-.2-.2 0-.3.1-.3.3-.3.5-.5 1.1-.6 1.6s-.3 1-.5 1.4c.2.2.3.1.4-.1s.2-.4.2-.6c0-.1.2-.2.3-.2h.8c.1 0 .3.1.3.2.1.2.2.4.2.6s.1.2.3.2.1-.2.1-.3zm-1.8-1.1c.2-.5.3-1.1.5-1.6h.1c.2.5.3 1 .5 1.6z"/></g><path d="m0 0h30v30h-30z" fill="none"/></svg>