<?xml version="1.0" encoding="utf-8"?>
<!-- Generator: Adobe Illustrator 21.0.0, SVG Export Plug-In . SVG Version: 6.00 Build 0)  -->
<svg version="1.1" id="Layer_1" xmlns="http://www.w3.org/2000/svg" xmlns:xlink="http://www.w3.org/1999/xlink" x="0px" y="0px"
	 viewBox="0 0 42 42" style="enable-background:new 0 0 42 42;" xml:space="preserve">
<style type="text/css">
	.st0{fill:#FD0808;}
	.st1{fill:none;}
</style>
<g>
	<path class="st0" d="M41.3,9.2c0,7.9,0,15.9,0,23.8c0,0.1,0,0.1-0.1,0.2c-0.2,0.7-0.7,1.3-1.4,1.6c-0.2,0.1-0.4,0.1-0.6,0.2
		C27.1,35,15,35,2.8,35c0,0-0.1,0-0.1-0.1c-1.1-0.3-1.9-1.3-1.9-2.5c0-2.1,0-4.2,0-6.3c0-0.7,0.5-1.2,1.2-1.3c0.1,0,0.3,0,0.4,0
		c2.4-0.2,4.1-2.7,3.3-5c-0.6-1.5-1.8-2.5-3.5-2.6c-1,0-1.4-0.7-1.4-1.5c0-2,0-4,0-6c0-0.3,0.1-0.6,0.1-0.9c0.3-1.1,1.3-1.8,2.6-1.8
		c11.6,0,23.2,0,34.7,0c0.2,0,0.3,0,0.5,0c1.2,0,2.2,0.7,2.5,1.9C41.2,9.1,41.2,9.2,41.3,9.2z M38.7,32.5c0-7.6,0-15.2,0-22.8
		c-11.8,0-23.6,0-35.4,0c0,1.7,0,3.4,0,5.2c0.1,0,0.1,0,0.2,0.1c2.6,0.7,4.2,2.4,4.7,5c0.7,3.3-1.5,6.5-4.7,7.3
		c-0.2,0-0.2,0.1-0.2,0.3c0,1.5,0,3.1,0,4.6c0,0.1,0,0.2,0,0.3C15.1,32.5,26.9,32.5,38.7,32.5z"/>
	<path class="st0" d="M19.6,30c-0.4,0-0.8-0.2-1-0.7c-0.2-0.5-0.2-0.9,0.2-1.4c0.7-0.8,1.3-1.6,2-2.4c1.7-2,3.4-4.1,5.1-6.1
		c1.9-2.2,3.7-4.4,5.6-6.7c0.6-0.7,1.4-0.7,2-0.1c0.4,0.5,0.4,1.2,0,1.7c-1.1,1.3-2.1,2.5-3.2,3.8c-3.1,3.7-6.2,7.5-9.4,11.2
		C20.5,29.8,20.2,30,19.6,30z"/>
	<path class="st0" d="M26.1,16.1c0,2.1-1.7,3.8-3.8,3.8c-2.1,0-3.8-1.7-3.8-3.8c0-2.1,1.8-3.8,3.8-3.8C24.4,12.3,26.1,14,26.1,16.1z
		 M23.6,16.1c0-0.7-0.6-1.3-1.3-1.3c-0.7,0-1.3,0.6-1.3,1.3c0,0.7,0.6,1.3,1.3,1.3C23,17.3,23.5,16.8,23.6,16.1z"/>
	<path class="st0" d="M33.7,26.2c0,2.1-1.7,3.8-3.8,3.8c-2.1,0-3.8-1.8-3.8-3.8c0-2.1,1.8-3.8,3.9-3.8C32,22.4,33.7,24.1,33.7,26.2z
		 M29.9,27.4c0.7,0,1.3-0.5,1.3-1.2c0-0.7-0.5-1.3-1.3-1.3c-0.7,0-1.3,0.6-1.3,1.3C28.6,26.9,29.2,27.4,29.9,27.4z"/>
	<path class="st0" d="M10.9,17.3c0.8,0,1.7,0,2.5,0c0,0.8,0,1.7,0,2.5c-0.8,0-1.7,0-2.5,0C10.9,19,10.9,18.2,10.9,17.3z"/>
	<path class="st0" d="M10.9,22.4c0.8,0,1.7,0,2.5,0c0,0.8,0,1.7,0,2.5c-0.8,0-1.7,0-2.5,0C10.9,24.1,10.9,23.2,10.9,22.4z"/>
	<path class="st0" d="M10.9,14.8c0-0.8,0-1.7,0-2.5c0.8,0,1.7,0,2.5,0c0,0.8,0,1.7,0,2.5C12.6,14.8,11.8,14.8,10.9,14.8z"/>
	<path class="st0" d="M10.9,27.5c0.8,0,1.7,0,2.5,0c0,0.8,0,1.7,0,2.5c-0.8,0-1.7,0-2.5,0C10.9,29.1,10.9,28.3,10.9,27.5z"/>
</g>
<rect y="0.1" class="st1" width="42" height="42"/>
</svg>
