<svg id="Layer_1" data-name="Layer 1" xmlns="http://www.w3.org/2000/svg" viewBox="0 0 466.29999 409.60001"><title>Artboard 1</title><path d="M433,217.63231c-2.72507,4.6002-2.07678,9.87354-2.76813,14.83495a198.434,198.434,0,0,1-28.92712,79.29111,15.04066,15.04066,0,0,1-1.4718,1.59287c-2.67358-4.6-5.40433-8.95013-9.23676-12.44406-7.65765-6.98135-16.31012-11.15909-26.9841-10.97958-14.722.24765-29.45117.05084-44.17725.07263-2.40582.00357-4.10233.20175-4.12021-3.47852A94.29543,94.29543,0,0,0,304.55457,242.596c-1.85947-3.53777-1.28592-5.27155,1.94821-6.88733,2.7948-1.39632,5.52811-2.91565,8.77335-4.63783-11.089-7.1875-17.48508-16.71988-17.13644-30.01721A31.70329,31.70329,0,0,1,308.684,177.82028c13.609-12.64407,35.7905-11.18057,47.28918,3.21767,12.68546,15.88435,9.36325,37.95544-9.78931,50.03954,17.08353,7.501,27.82965,20.32213,33.56412,37.7084,25.16171-52.73277,17.77942-131.063-39.31528-182.62578C283.509,34.75183,197.64351,30.838,137.097,76.01957c-62.42131,46.5806-80.16,127.37759-52.64709,190.24078,6.71255-15.81854,16.37667-28.36729,33.14079-35.03455-11.3984-7.028-17.60283-16.72925-17.60731-29.496a31.169,31.169,0,0,1,10.15606-23.43292c14.13458-13.2162,36.27168-11.75655,48.042,2.9913,11.77359,14.75192,9.63394,37.952-9.89586,49.65614,3.42528,1.94249,6.65019,3.826,9.92886,5.61081,2.05354,1.11784,2.46909,2.2132,1.28278,4.5388a100.387,100.387,0,0,0-11.298,43.24922c-.14037,5.26038-2.24922,5.80264-6.56029,5.72528-12.44305-.22321-24.92275.46823-37.33246-.21268-16.79573-.92154-27.25619,7.7767-35.22258,21.096-.80644,1.34836-1.54867,2.73511-2.62982,4.65222a164.92153,164.92153,0,0,1-13.097-22.63159,200.84381,200.84381,0,0,1-19.80821-74.05063c-.07569-1.00491.1871-2.18076-1.34291-2.34148v-5.25977a40.68489,40.68489,0,0,0,0-14.72734v-3.15585c1.76552-9.77869,1.69022-19.76288,3.87154-29.53429,8.0483-36.053,24.26564-67.66292,49.48469-94.79551A199.79106,199.79106,0,0,1,181.45395,11.2848c27.44965-7.45545,55.315-8.52109,83.33353-4.03532a195.15777,195.15777,0,0,1,97.92816,45.42269C399.8233,84.56187,422.57571,124.88,430.87912,173.206c1.20941,7.039.6629,14.263,2.12088,21.28333v2.10391a40.6866,40.6866,0,0,0,0,14.72734Z" fill="#fcfcfc"/><path d="M210.05286,208.7883c-31.76814-20.17264-27.05115-55.62436-10.72418-71.91745a45.37965,45.37965,0,0,1,64.17361-.60977q.94084.92313,1.82687,1.8997c16.35086,17.8,17.85123,52.01524-12.23367,70.72984a75.993,75.993,0,0,1,31.258,23.25966c12.4079,15.647,18.19724,33.63753,19.65634,53.29.24478,3.29712-.705,4.62793-4.31879,4.61935q-67.81622-.16164-135.63284.00366c-3.93811.01019-4.68127-1.46671-4.40639-4.9845C162.37032,250.29225,177.49083,223.77744,210.05286,208.7883Z" fill="#fcfcfc"/><path d="M316.51257,374.069c-.27811,10.80515-9.22424,19.4599-19.59894,18.96057a19.52339,19.52339,0,0,1-18.77423-20.00381,19.28641,19.28641,0,0,1,20.00253-18.54266l.07568.003a18.83926,18.83926,0,0,1,18.30249,19.36118Q316.517,373.95816,316.51257,374.069Z" fill="#fcfcfc"/><path d="M169.11436,393.3577A19.20133,19.20133,0,0,1,149.8383,374.5119a19.495,19.495,0,0,1,18.87679-19.91318c10.13893-.16522,19.65636,9.07376,19.88017,19.29858C188.81822,384.08289,179.61389,393.27753,169.11436,393.3577Z" fill="#fcfcfc"/><path d="M361.52286,350.07529a19.19633,19.19633,0,1,1,.71826-.00128Q361.882,350.08138,361.52286,350.07529Z" fill="#fcfcfc"/><path d="M214.00531,385.34287c.23053-11.24319,8.83568-18.92654,20.83359-18.60184,9.3755.25375,18.014,9.51437,17.92815,19.21918-.09114,10.29788-9.41232,19.274-19.84715,19.11221a19.20905,19.20905,0,0,1-18.91954-19.49429Q214.00211,385.46048,214.00531,385.34287Z" fill="#fcfcfc"/><path d="M124.01512,332.535c.04775,10.41547-9.09252,19.669-19.37623,19.61639-10.05649-.05148-18.92177-9.05841-19.05033-19.35468a19.3976,19.3976,0,0,1,19.04779-19.69525C115.10351,312.98306,123.96623,321.87082,124.01512,332.535Z" fill="#fcfcfc"/></svg>