<svg enable-background="new 0 0 18 18" height="18" viewBox="0 0 18 18" width="18" xmlns="http://www.w3.org/2000/svg"><g fill="#fcfcfc"><path d="m12.5 7.7c0-.8 0-1.6 0-2.4 0-.2-.1-.3-.3-.3-.5 0-1 0-1.5 0-.9 0-1.7-.6-1.9-1.4-.1-.3-.1-.6-.1-.8 0-.5 0-1 0-1.5h-.3c-2.1 0-4.2 0-6.3 0-.5.1-1 .5-1.1 1.1v13.4c.1.6.5 1 1.1 1.1h8.7.6c.6-.1 1-.6 1-1.2 0-.3 0-.6 0-1 0-.1 0-.2.1-.3.2-.3.5-.7.8-1h.1v2.2c0 .4 0 .8-.2 1.2-.3.7-.9 1.1-1.7 1.1-3.2 0-6.3 0-9.5 0-.7 0-1.3-.4-1.5-1-.2-.3-.2-.6-.2-.9 0-2.2 0-4.3 0-6.5s0-4.4 0-6.6c-.1-.8 0-1.4.4-1.9.3-.5.9-.7 1.4-.8h6.5.6c.1 0 .2.1.2.1.4.4.9.8 1.3 1.3.8.8 1.6 1.6 2.4 2.4.2.2.3.4.3.7v1.4c0 .1 0 .1-.1.2-.2.5-.5 1-.8 1.4z"/><path d="m17.1 4.8c0 .2-.1.4-.1.7s0 .2.1.3l.5.3c.2.2.3.3.1.5-.3.6-.6 1.2-.9 1.7-.4.8-.9 1.6-1.3 2.4-.1.2-.2.2-.4.1-.2-.2-.2-.5 0-.7l.9-1.6 1-1.8c.1-.2 0-.3-.1-.4s-.2 0-.3.1c-.9 1.6-1.8 3-2.7 4.6-.8 1.3-1.6 2.4-2.5 3.6-.2.3-.5.5-.8.8 0 0-.1.1-.1.1-.2.1-.4 0-.3-.2.1-.4.1-.8.3-1.1.6-1.7 1.4-3.4 2.3-5 .8-1.4 1.6-2.9 2.5-4.3.2-.3.4-.6.6-.8s.6-.2.8 0c.3.1.5.4.4.7z"/><path d="m6.8 9.2h3.1 1c.2 0 .4.2.4.4 0 .2-.1.4-.4.5h-.3l-6.6.1c-.5 0-.9 0-1.4 0-.2 0-.4-.2-.4-.5 0-.2.2-.4.4-.4h.1z"/><path d="m10.7 11.2-.4.9c0 .1-.1.1-.2.1h-6.8c-.2 0-.4 0-.6 0s-.4-.2-.4-.5c0-.2.1-.4.4-.4h2.9 4.9z"/><path d="m9.8 13.3c-.1.3-.2.6-.3.8 0 .1-.1.1-.2.1h-1.6-4.4-.7c-.2 0-.4-.2-.4-.4 0 0 0 0 0-.1 0-.2.1-.4.4-.5h1.8z"/><path d="m4.1 8c-.3 0-.3 0-.3-.3s-.1-.3-.2-.3l-.5-.2c-.2 0-.2-.2-.2-.3.1-.4.1-.4.5-.3.2.1.4.1.7.1.2 0 .4-.1.4-.3s-.1-.3-.2-.4c-.2-.1-.4-.2-.7-.3l-.3-.2c-.4-.3-.6-1-.2-1.5.1-.1.2-.2.3-.3l.2-.1c.2-.1.3-.3.3-.4 0-.2 0-.3.2-.2.2 0 .4-.1.3.2s.1.3.3.4l.2.1c.2 0 .3 0 .2.3s-.1.3-.4.3c-.2 0-.4 0-.6 0s-.3.1-.3.3c0 .1.1.3.2.4.1 0 .4.1.6.2.3.1.6.4.7.8.2.5-.1 1.1-.6 1.4-.2 0-.3.2-.3.4s0 .2-.3.2z"/><path d="m9.2 8.1h-1.5-1.4c-.2 0-.4-.2-.4-.4s.2-.4.4-.5h.3 4.3c.3 0 .5.2.5.5 0 .3-.2.5-.5.5z"/></g><path d="m0 0h18v18h-18z" fill="none"/></svg>