<svg enable-background="new 0 0 30 30" height="30" viewBox="0 0 30 30" width="30" xmlns="http://www.w3.org/2000/svg"><g fill="#fe1f03"><path d="m29 6c-.1.3-.2.6-.4.9-.1.2-.3.5-.5.6-.1.1-.2.3-.2.5v10.8c0 1.1-.8 2.1-1.9 2.2-.1 0-.1-.1-.1-.2v-12.8c0-.2-.1-.3-.2-.4-.7-.5-1.1-1.4-.8-2.3.3-.8 1-1.4 1.9-1.5.8 0 1.6.4 1.9 1.2.1.2.2.4.3.6s0 .3 0 .4z"/><path d="m23.6 16.6c-.5 0-.5 0-.5-.5v-6.2c0-.3-.2-.6-.5-.7-.2-.1-.4-.1-.7-.1-.8 0-1.5 0-2.3 0-.1 0-.3-.1-.4-.1 0-.2 0-.3.1-.5s.2-.3.4-.4l.6-.7c.2-.1.2-.4.1-.6-.1-.1-.2-.1-.3-.1-.5-.1-.9-.2-1.4-.3-.2 0-.4-.2-.5-.3-.2-.3-.4-.7-.6-1.1s-.7-.4-.9 0l-.4.6c-.1.1-.2.2-.3.2l-2-.6c-.2-.1-.3-.2-.4-.3-.4-.6-.7-1.2-1.1-1.8-.3-.4-.6-.4-.8 0s-.6 1.1-.9 1.6c-.1.1-.1.3-.2.4s-.2.2-.4.2c-.7.1-1.4.2-2.1.4-.2.1-.3 0-.4-.2s-.2-.5-.4-.7c-.1-.2-.3-.3-.6-.2-.1 0-.2.1-.3.3-.2.3-.4.7-.6 1.1-.1.2-.2.3-.5.3-.4.1-.9.2-1.3.3-.3 0-.4.3-.4.5 0 .1.1.2.2.3.3.4.6.7 1 1.1.1.1.2.2.1.4-.1.1-.2.1-.4.1-.7 0-1.4 0-2 0-.9 0-1.1.2-1.5 1v16.4l.2.3c.2.3.5.5.9.5h.2 19.7c.6 0 1.1-.4 1.2-1v-.1c0-1 0-1.9 0-2.9 0-.3 0-.3.3-.3h.5c.1 0 .3-.1.3-.2 0 0 0 0 0-.1s0-.3 0-.5v-5c0-.5-.1-.5-.7-.5zm-7.9-9.2c.1-.1.3-.2.4-.2.3 0 .6-.2.7-.5.1-.2.2-.3.3-.5s.2-.2.3 0c.1.1.1.2.2.3.2.4.5.6.9.7l.3.1c.3.1.3.1.1.4s-.2.2-.3.3c-.3.3-.4.6-.3 1v.3c0 .2-.1.2-.2.2l-.5-.2c-.2-.1-.5-.1-.8 0-.2.1-.3.2-.5.3h-.1c-.1 0-.1-.1-.1-.2s0-.3 0-.4v-.3c.1-.2 0-.5-.1-.7-.1-.1-.2-.2-.3-.3s0-.3 0-.3zm-6.4-1c.4-.1.9-.2 1.4-.3.3 0 .5-.2.6-.4.2-.4.4-.7.6-1.1.1-.1.1-.3.3-.3s.2.2.2.2c.2.5.4.9.6 1.3.1.2.3.3.5.3l1.4.3c.2 0 .2.2.1.3-.3.3-.6.6-.9.9s-.4.6-.3 1 .2.8.2 1.2 0 .3-.3.2-.7-.3-1-.5c-.4-.2-.8-.2-1.2 0-.3.2-.7.3-1 .5s-.4.1-.3-.1c.1-.5.1-.9.2-1.3.1-.3 0-.7-.3-.9-.3-.3-.6-.6-.9-1s-.1-.3.1-.3zm-4 .9c.2 0 .5-.1.7-.1s.3-.1.4-.3.2-.4.3-.5.3-.2.4 0l.3.5c.1.1.2.2.4.3.2 0 .3.1.5.1.3.1.3.2.1.4l-.3.4c-.1.2-.1.4-.1.6s0 .4.1.6-.1.2-.3.1c-.2 0-.3-.1-.5-.2s-.5-.1-.8 0c-.1.1-.3.2-.5.2-.2.1-.3 0-.3-.2s0-.3 0-.4c.1-.3 0-.7-.3-.9-.1-.1-.2-.2-.3-.3 0-.2 0-.3.2-.3zm11.4 16.8h-9.1c-.4 0-.4 0-.4-.4v-.5c0-.3.1-.3.3-.3h9.2c.3 0 .4 0 .4.4v.5c-.1.3-.1.3-.4.3zm4.4-4.8c0 .4-.1.5-.5.5h-17c-.4 0-.5-.1-.5-.6 0-1.9 0-3.7 0-5.6v-1.9c0-.5.1-.7.7-.7h16.8c.5 0 .5.1.6.6v2.5 5c-.1.1-.1.2-.1.2z"/><path d="m14.4 15.5v-2.9c0-.2 0-.3-.2-.3h-4.1c-.2 0-.3 0-.3.3v5.8c0 .2 0 .3.3.3h4c.3 0 .3 0 .3-.3zm-.8 0-1.4 1.2c-.1.1-.2.1-.3 0l-1.4-1.2c-.1-.1-.1-.2-.1-.3.1-.4.6-.7 1-.6h.6.9c.2 0 .3.1.4.2s.2.3.3.4.1.2 0 .3z"/><path d="m8.7 15.4v-3c0-.2 0-.2-.2-.2h-4.1c-.2 0-.2.1-.2.2v6c0 .2.1.2.2.2h4.1c.2 0 .2-.1.2-.2zm-.8 0-1.4 1.2c-.1.1-.2.1-.3 0l-1.4-1.2c-.1-.1-.1-.3 0-.4.1-.2.2-.3.3-.4s.2-.1.3-.1h1 1c.2 0 .3.1.4.2l.2.4c.1.1.1.3-.1.3.1.1.1.1 0 0z"/><path d="m20 12.6c0-.3 0-.3-.3-.3h-4c-.3 0-.3 0-.3.3v5.8c0 .3 0 .3.3.3h4c.3 0 .3 0 .3-.3 0-.6 0-1.1 0-1.7 0-1.4 0-2.8 0-4.1zm-.7 2.8-1.3 1.2c-.1.1-.3.1-.4 0-.4-.4-.9-.8-1.3-1.1-.1-.1-.1-.2 0-.4 0-.1.1-.1.1-.2.1-.3.4-.5.8-.4h.1.6 1c.1 0 .3.1.3.2.1.1.2.3.3.4 0 .1 0 .3-.2.3.1 0 .1 0 0 0z"/></g><path d="m0 0h30v30h-30z" fill="none"/></svg>