<svg enable-background="new 0 0 30 30" height="30" viewBox="0 0 30 30" width="30" xmlns="http://www.w3.org/2000/svg"><g fill="#d8d8d8"><path d="m15.9 10.7s-.1.1-.1.1l-4 3.3c-.1.1-.2.1-.3.1l-4.9-1.2c-.1 0-.2-.1-.2-.2-.2-1.3-.4-2.6-.6-3.9 0-.1 0-.3.1-.4l1.6-1.7c.9-.8 1.8-1.6 2.8-2.3.2-.2.4-.2.6-.1l3.9 1.2c.1 0 .2.1.2.2.2.9.5 1.7.6 2.6.2.8.2 1.5.3 2.3z"/><path d="m6.4 13.6c.6.1 1.1.2 1.6.4l3.3.7c.1 0 .2.1.2.2l1.9 5.4c0 .1 0 .2-.1.3-.9 1.1-1.8 2.2-2.7 3.3-.1.1-.2.1-.3.1l-4.2-1.2c-.1 0-.2-.1-.2-.1-1-1.8-1.7-3.7-2-5.7 0-.1 0-.2.1-.3l2.3-3s0-.1.1-.1z"/><path d="m15.6 5.7c.4-.3.8-.5 1.3-.7.6-.4 1.3-.7 2-1.1h.3c1.8.7 3.5 1.7 5 2.9.1.1.2.2.2.3.1 1.5.2 2.9.3 4.4 0 .1 0 .2-.2.3l-3.3 2c-.1.1-.2.1-.3 0l-4.2-2.8c-.1-.1-.1-.1-.2-.3-.1-1.7-.4-3.3-.9-4.9z"/><path d="m11.1 24.2 2.6-3.2.1-.1c.4-.5.4-.5 1-.5 1.5-.1 2.9-.2 4.4-.4.2 0 .4 0 .5.2.7.9 1.5 1.8 2.2 2.7.1.1.1.2 0 .3-.7 1-1.5 2-2.2 3-.1.1-.1.1-.2.2-.9.2-1.8.4-2.8.5-.6.1-1.2.1-1.7.1-.6 0-1.2 0-1.8 0-.1 0-.1 0-.2-.1z"/><path d="m27.2 15.1c0 1-.2 2-.4 2.9-.3 1.1-.8 2.1-1.4 3.1-.1.2-.3.3-.5.4l-2.3 1.1c-.1.1-.2 0-.3-.1-.8-1-1.6-1.9-2.4-2.9-.1-.1-.1-.2-.1-.3.4-1.6.8-3.2 1.2-4.8 0-.1.1-.2.2-.2l3.6-2.1c.1-.1.2-.1.2 0 .7.8 1.3 1.5 2 2.3.3.2.2.4.2.6z"/><path d="m10.8 1.4c-.2.8-.4 1.6-.7 2.4 0 .1 0 .2-.1.2-.4.3-.7.6-1.1.8-1.2.8-2.3 1.9-3.2 3-.3.4-.7.7-1.1.8-.8.1-1.5.4-2.2.6h-.3c1.7-3.7 4.8-6.6 8.7-7.8z"/><path d="m5.2 25c-2.8-2.6-4.3-6.3-4.2-10.2l.1.1 1.9 1.9c.1.1.1.2.1.2.3 1.9 1 3.7 2 5.3.2.3.3.7.3 1.1-.1.6-.1 1.1-.2 1.6z"/><path d="m26.5 6.8c-.5-.1-.9-.2-1.4-.2-.2 0-.4-.1-.5-.2-.6-.5-1.3-.9-1.8-1.4-.9-.6-1.8-1.1-2.8-1.4-.4-.1-.7-.2-1-.4-.2-.3-.4-.5-.6-.8-.3-.4-.5-.9-.8-1.3 1.8.4 3.5 1.1 5 2 1.5 1 2.8 2.3 3.9 3.7z"/><path d="m22.1 27-.5.4c-1.3.8-2.8 1.3-4.4 1.5-2.1.2-4.2.1-6.2-.5h-.1l.1-.1 1.6-.7h.3c1.2 0 2.4.1 3.7.1.8-.1 1.7-.2 2.5-.4.5-.1 1-.2 1.4-.1h1.6z"/><path d="m26.2 23.4-.3-1.9c0-.1 0-.2.1-.2.4-.8.8-1.6 1.2-2.4.4-1.1.6-2.3.6-3.4 0-.1 0-.3 0-.4-.1-.6.1-1.3.4-1.8.2-.3.3-.6.5-.9.7 3.9-.2 7.8-2.5 11z"/></g><path d="m0 0h30v30h-30z" fill="none"/></svg>