<?xml version="1.0" encoding="utf-8"?>
<!-- Generator: Adobe Illustrator 25.0.1, SVG Export Plug-In . SVG Version: 6.00 Build 0)  -->
<svg version="1.1" id="bold" xmlns="http://www.w3.org/2000/svg" xmlns:xlink="http://www.w3.org/1999/xlink" x="0px" y="0px"
	 viewBox="0 0 512 512" style="enable-background:new 0 0 512 512;" xml:space="preserve">
<style type="text/css">
	.st0{fill:#FFFFFF;}
</style>
<path class="st0" d="M394.7,512c-4.1,0-8.2-1.6-11.3-4.7L282,406c-4.6-4.6-6-11.5-3.5-17.4s8.3-9.9,14.8-9.9h48v-96
	c0-14.7,12-26.7,26.7-26.7h53.3c14.7,0,26.7,12,26.7,26.7v96h48c6.5,0,12.3,3.9,14.8,9.9s1.1,12.9-3.5,17.4L406,507.3
	C402.9,510.4,398.8,512,394.7,512z"/>
<path class="st0" d="M448,64H64C28.8,64,0,92.8,0,128v256c0,35.2,28.8,64,64,64h199.9l-11.9-11.9c-8.7-8.5-14.1-19.2-16.2-30.7H64
	c-11.7,0-21.3-9.6-21.3-21.3V128c0-11.7,9.6-21.3,21.3-21.3h384c11.7,0,21.3,9.6,21.3,21.3v104.5c13,12.8,21.3,30.5,21.3,50.1V336
	h5.3c5.5,0,10.9,0.9,16,2.3V128C512,92.8,483.2,64,448,64z"/>
<path class="st0" d="M154.7,170.7h-128c-8.8,0-16,7.2-16,16v138.7c0,8.8,7.2,16,16,16h128c32.4,0,58.7-26.3,58.7-58.7v-53.3
	C213.3,197,187,170.7,154.7,170.7z M128,298.7c-23.6,0-42.7-19.1-42.7-42.7s19.1-42.7,42.7-42.7s42.7,19.1,42.7,42.7
	S151.6,298.7,128,298.7z"/>
</svg>
