<svg xmlns="http://www.w3.org/2000/svg" xmlns:xlink="http://www.w3.org/1999/xlink" width="407" height="214" viewBox="0 0 407 214">
  <defs>
    <style>
      .cls-1 {
        fill: url(#linear-gradient);
      }

      .cls-2 {
        fill: #690e0e;
      }

      .cls-3 {
        fill: #b00000;
      }
    </style>
    <linearGradient id="linear-gradient" x1="1" y1="1" x2="0.015" y2="-0.766" gradientUnits="objectBoundingBox">
      <stop offset="0" stop-color="#310000"/>
	  <stop offset="0.621" stop-color="#111111"/>
      <stop offset="1" stop-color="#0c0c0c"/>
	  <stop offset="1"/>
    </linearGradient>
  </defs>
  <g id="Group_2325" data-name="Group 2325" transform="translate(-10 -91)">
    <path id="Path_6547" data-name="Path 6547" class="cls-1" d="M7,0H400a7,7,0,0,1,7,7V207a7,7,0,0,1-7,7H7a7,7,0,0,1-7-7V7A7,7,0,0,1,7,0Z" transform="translate(10 91)"/>
    <g id="Group_1" data-name="Group 1" transform="translate(212.936 102.275)">
      <path id="Path_5" data-name="Path 5" class="cls-2" d="M99.818,1.074c2.682.336,5.371.609,8.041,1.021,18.8,2.9,34.687,11.421,47.858,25.067a81.764,81.764,0,0,1,21.446,39.8,3.1,3.1,0,0,0,2.365,2.6,16.037,16.037,0,0,1,10.837,15.08c.146,15.105.19,30.21-.025,45.309-.1,6.893-3.767,11.82-10.076,14.655a2.5,2.5,0,0,0-1.68,2.124,38.567,38.567,0,0,1-37.249,32.595c-9.43.178-18.859.076-28.289.032a2.141,2.141,0,0,0-2.34,1.465c-3.2,6.988-10.273,10.577-18.124,9.3-6.849-1.1-12.378-7.115-13.3-14.458a16.663,16.663,0,0,1,9.969-17.134,16.409,16.409,0,0,1,21.364,8.161,2.392,2.392,0,0,0,2.619,1.617c9.125-.063,18.244.038,27.369-.051a27.711,27.711,0,0,0,26.71-20.762c.1-.406.14-.831.235-1.433-1.573,0-3.038.025-4.5-.006-3.627-.089-5.885-2.315-5.885-5.942q-.028-32.826,0-65.652c0-3.83,2.258-6.018,6.132-6.062.8-.013,1.592,0,2.41,0-4.661-24.211-28.27-52.468-63.255-55.855C65.124,8.937,33.221,35.622,25.63,68.394c.812,0,1.573,0,2.334.006,4.23.038,6.386,2.162,6.386,6.373q.019,26.358.006,52.709c0,4.128.013,8.256-.006,12.391-.019,3.976-2.219,6.176-6.183,6.2-3.139.025-6.284-.07-9.43.019A16.755,16.755,0,0,1,1.3,131.788a1.8,1.8,0,0,0-.235-.5V82.827c.247-.818.488-1.636.736-2.448A15.954,15.954,0,0,1,11.87,69.6a3.344,3.344,0,0,0,2.479-2.72A80.462,80.462,0,0,1,30.938,32.673c14.287-17.4,32.493-27.9,54.9-30.9,1.94-.26,3.894-.469,5.84-.7Z" transform="translate(0 0)"/>
      <path id="Path_6" data-name="Path 6" class="cls-2" d="M108.812,57.986A50.567,50.567,0,0,1,70.39,106.472a49.023,49.023,0,0,1-34.827-3.938,4.45,4.45,0,0,0-3.811-.323c-5.168,1.814-10.393,3.462-15.568,5.238-2.416.831-4.642.774-6.513-1.1s-1.909-4.109-1.084-6.519c1.814-5.3,3.6-10.6,5.27-15.942a4.234,4.234,0,0,0-.2-2.9A49.8,49.8,0,0,1,45.6,9.842c27.9-7.305,56.59,10.533,62.012,38.625C108.216,51.6,108.419,54.809,108.812,57.986ZM63.865,69.222c0-3.57.025-7.147-.006-10.723-.032-3.443-2.353-5.936-5.492-5.961-3.234-.032-5.574,2.467-5.587,6.043q-.038,10.625,0,21.263c.013,3.469,2.321,5.923,5.485,5.961,3.215.032,5.568-2.479,5.593-6.043C63.89,76.249,63.865,72.736,63.865,69.222Zm-.013-33.4a5.533,5.533,0,1,0-5.479,5.587A5.581,5.581,0,0,0,63.852,35.823Z" transform="translate(37.431 38.069)"/>
    </g>
    <g id="Group_2314" data-name="Group 2314" transform="translate(21.684 102.275)">
      <path id="Path_5-2" data-name="Path 5" class="cls-3" d="M21.271,1.074c.549.069,1.1.125,1.645.209a16.883,16.883,0,0,1,9.793,5.129A16.73,16.73,0,0,1,37.1,14.556a.634.634,0,0,0,.484.532A3.281,3.281,0,0,1,39.8,18.173c.03,3.091.039,6.182-.005,9.271a3.192,3.192,0,0,1-2.062,3,.511.511,0,0,0-.344.435,7.891,7.891,0,0,1-7.622,6.669c-1.929.036-3.859.016-5.788.006a.438.438,0,0,0-.479.3,3.35,3.35,0,0,1-3.708,1.9,3.4,3.4,0,0,1-.683-6.464,3.358,3.358,0,0,1,4.371,1.67.49.49,0,0,0,.536.331c1.867-.013,3.733.008,5.6-.01a5.67,5.67,0,0,0,5.465-4.248c.021-.083.029-.17.048-.293-.322,0-.622.005-.921,0A1.136,1.136,0,0,1,33,29.524Q33,22.807,33,16.091a1.144,1.144,0,0,1,1.255-1.24c.163,0,.326,0,.493,0A14.91,14.91,0,0,0,21.808,3.421,14.91,14.91,0,0,0,6.091,14.849h.477a1.162,1.162,0,0,1,1.307,1.3q0,5.393,0,10.785c0,.845,0,1.689,0,2.535A1.151,1.151,0,0,1,6.61,30.744c-.642.005-1.286-.014-1.929,0A3.428,3.428,0,0,1,1.112,27.82a.368.368,0,0,0-.048-.1V17.8c.051-.167.1-.335.151-.5a3.264,3.264,0,0,1,2.061-2.2.684.684,0,0,0,.507-.557,16.464,16.464,0,0,1,3.394-7A17,17,0,0,1,18.411,1.218c.4-.053.8-.1,1.2-.144Z" transform="translate(0 0)"/>
      <path id="Path_6-2" data-name="Path 6" class="cls-3" d="M28.685,18.388a10.347,10.347,0,0,1-7.862,9.921A10.031,10.031,0,0,1,13.7,27.5a.911.911,0,0,0-.78-.066c-1.058.371-2.127.708-3.185,1.072A1.164,1.164,0,0,1,8.177,26.95c.371-1.083.737-2.169,1.078-3.262a.866.866,0,0,0-.04-.594A10.265,10.265,0,1,1,28.44,16.44C28.563,17.081,28.6,17.738,28.685,18.388Zm-9.2,2.3c0-.731.005-1.462,0-2.194a1.137,1.137,0,1,0-2.267.017q-.008,2.174,0,4.351a1.137,1.137,0,1,0,2.267-.017C19.493,22.125,19.488,21.406,19.488,20.687Zm0-6.834A1.132,1.132,0,1,0,18.364,15,1.142,1.142,0,0,0,19.485,13.853Z" transform="translate(2.085 2.121)"/>
    </g>
  </g>
</svg>
